<?xml version="1.0" standalone="no"?>
<!DOCTYPE svg PUBLIC "-//W3C//DTD SVG 20010904//EN"
 "http://www.w3.org/TR/2001/REC-SVG-20010904/DTD/svg10.dtd">
<svg version="1.0" xmlns="http://www.w3.org/2000/svg"
 width="235.000000pt" height="235.000000pt" viewBox="0 0 235.000000 235.000000"
 preserveAspectRatio="xMidYMid meet">
<metadata>
Created by potrace 1.14, written by Peter Selinger 2001-2017
</metadata>
<g transform="translate(0.000000,235.000000) scale(0.100000,-0.100000)"
fill="#000000" stroke="none">
<path d="M1052 2326 c-70 -35 -128 -93 -151 -148 -12 -29 -26 -61 -31 -70 -5
-9 -7 -30 -4 -46 6 -29 5 -29 -35 -27 -23 1 -41 0 -42 -4 0 -3 -2 -16 -5 -28
-5 -28 30 -51 50 -34 18 15 43 -13 29 -31 -12 -15 -9 -57 11 -148 8 -36 12
-68 9 -72 -2 -5 1 -8 7 -8 6 0 8 -4 5 -10 -3 -5 -1 -10 4 -10 6 0 11 -7 11
-16 0 -8 -4 -12 -10 -9 -5 3 -10 -1 -10 -9 0 -9 -9 -25 -20 -36 -11 -11 -19
-21 -18 -22 2 -3 -27 -41 -54 -70 -10 -10 -15 -18 -12 -18 3 0 -1 -6 -8 -13
-15 -15 -49 -31 -60 -29 -5 1 -8 -3 -8 -8 0 -6 -6 -10 -13 -10 -7 0 -32 -14
-55 -31 -23 -17 -42 -28 -42 -24 0 4 -7 2 -15 -5 -8 -6 -14 -15 -14 -18 2 -17
-14 -51 -27 -56 -8 -3 -14 -12 -14 -19 0 -8 -12 -36 -26 -61 -15 -26 -36 -75
-49 -109 -12 -34 -34 -89 -49 -122 -87 -189 -116 -301 -97 -371 24 -88 70
-132 171 -160 51 -15 57 -20 89 -75 82 -140 196 -249 336 -319 110 -54 180
-71 317 -77 177 -8 164 -20 160 146 l-4 141 25 9 c14 5 38 11 53 13 35 4 95
38 88 50 -3 4 2 8 10 8 9 0 15 6 14 12 -2 8 12 14 37 16 63 5 105 -6 117 -33
6 -13 16 -22 22 -20 40 13 116 12 135 -1 20 -14 23 -12 51 33 53 83 121 289
102 308 -9 8 -67 6 -77 -4 -6 -4 -24 -11 -41 -14 -22 -4 -33 -1 -41 12 -11 18
-10 182 3 376 10 167 8 237 -10 251 -9 6 -13 14 -9 17 3 4 -1 7 -9 7 -9 0 -15
6 -14 13 2 17 35 62 44 61 16 -3 70 48 65 62 -3 7 1 16 9 19 18 7 21 145 4
145 -6 0 -17 14 -24 30 -8 17 -17 28 -22 25 -14 -9 -22 28 -22 103 l-1 74 -68
-4 c-38 -2 -69 0 -69 5 0 9 -23 5 -31 -6 -3 -5 -19 -9 -35 -9 -28 -1 -30 -3
-29 -45 0 -26 6 -47 14 -52 7 -5 11 -14 7 -20 -5 -7 -1 -8 11 -4 17 6 17 5 1
-14 -10 -11 -18 -25 -18 -31 0 -8 -30 -12 -99 -12 l-100 0 2 35 c1 19 5 35 8
35 14 0 15 51 2 77 -7 14 -12 31 -10 37 3 6 -1 18 -8 26 -7 8 -15 30 -18 48
l-6 32 44 0 c47 0 59 8 49 34 -4 10 -18 16 -40 16 -24 0 -34 5 -34 15 0 8 -4
15 -8 15 -4 0 -9 21 -11 48 -2 26 -4 55 -4 64 -1 9 -5 14 -10 11 -5 -3 -6 4
-2 17 5 15 3 20 -3 16 -6 -3 -13 2 -17 11 -8 25 -47 68 -69 76 -9 4 -15 11
-12 15 3 5 0 9 -7 9 -7 1 -45 11 -84 22 -84 24 -129 24 -181 -3z m-99 -366
c20 0 20 -1 -3 -25 -26 -27 -26 -26 10 -164 8 -35 8 -46 -2 -52 -21 -14 -28
-11 -39 19 -33 86 -35 240 -2 228 8 -3 24 -6 36 -6z m165 -36 c9 -3 7 -12 -9
-34 l-23 -30 -13 38 c-7 20 -13 38 -13 39 0 1 39 -7 58 -13z m-93 -7 c16 -13
15 -14 -12 -10 -17 3 -34 0 -37 -6 -5 -7 2 -11 19 -11 14 0 28 -7 32 -16 3 -8
11 -13 19 -10 8 3 15 -6 19 -25 4 -16 13 -29 20 -29 17 0 29 17 14 22 -5 2 7
22 28 45 l38 41 135 -27 134 -27 15 -47 c17 -54 9 -69 -33 -69 -14 0 -26 -4
-26 -9 0 -14 -85 -59 -140 -73 -29 -8 -61 -22 -71 -33 -19 -18 -17 -19 83 -15
57 2 117 7 135 12 32 8 32 8 26 -23 -3 -18 -11 -37 -17 -44 -13 -14 -157 -35
-192 -28 -13 3 -36 7 -50 10 -14 3 -46 25 -72 48 -46 42 -47 42 -21 7 36 -48
94 -80 147 -80 39 0 42 -2 42 -26 0 -27 -1 -27 -59 -21 -45 4 -82 17 -148 52
-134 71 -137 73 -123 123 6 23 14 42 19 42 5 0 20 9 34 21 20 15 24 24 18 37
-16 32 -41 117 -41 139 0 12 8 27 18 32 22 14 25 13 47 -2z m797 -99 c-1 -9 6
-19 18 -23 15 -5 20 -14 18 -28 -2 -17 -11 -23 -36 -25 -30 -3 -33 -1 -27 17
6 18 1 20 -57 23 -52 2 -63 6 -66 22 -6 28 16 36 88 34 54 -3 65 -6 62 -20z
m13 -117 c-46 -18 -85 -21 -85 -6 0 11 13 15 53 14 36 0 46 -3 32 -8z m-105
-10 c0 -6 -4 -13 -10 -16 -5 -3 -10 1 -10 9 0 9 5 16 10 16 6 0 10 -4 10 -9z
m127 -31 c-36 -11 -164 -24 -156 -16 7 8 105 24 149 24 34 0 34 0 7 -8z m-37
-45 c-14 -17 -95 -21 -105 -6 -5 9 26 16 89 19 24 2 27 0 16 -13z m33 -30
c-46 -44 -63 -54 -63 -37 0 11 61 68 80 75 32 12 29 5 -17 -38z m-246 8 c7
-15 12 -48 11 -73 -1 -25 1 -61 5 -80 18 -86 19 -100 9 -100 -5 0 -12 -9 -15
-21 -3 -11 -14 -23 -25 -26 -24 -6 -34 -58 -23 -126 11 -68 4 -91 -31 -105
-24 -9 -35 -8 -52 3 -11 8 -23 14 -26 13 -3 0 -22 8 -42 18 l-38 18 0 118 c0
81 -5 130 -14 153 -8 19 -13 35 -11 35 2 0 -7 11 -21 25 -14 14 -22 30 -19 35
3 6 1 10 -4 10 -6 0 -11 5 -11 11 0 6 7 9 15 6 8 -4 17 -2 20 3 4 6 21 10 40
10 45 0 65 9 65 29 0 9 5 29 12 43 11 23 18 25 78 27 62 2 65 1 77 -26z m332
-11 c16 -29 -23 -101 -86 -159 -42 -39 -54 -57 -50 -73 5 -19 1 -20 -69 -20
-41 0 -74 2 -74 4 0 16 14 36 26 36 19 0 18 6 -5 29 -23 23 -45 118 -35 155 3
14 8 26 10 26 24 0 104 -74 104 -95 0 -8 5 -15 11 -15 7 0 9 11 6 30 -5 22 -3
28 7 24 8 -3 13 -13 12 -22 -2 -28 47 -27 80 2 36 30 25 46 -12 17 -15 -11
-31 -21 -36 -21 -14 0 23 59 51 81 30 24 48 24 60 1z m-109 -282 c0 -6 -38
-10 -95 -10 -57 0 -95 4 -95 10 0 6 38 10 95 10 57 0 95 -4 95 -10z m-82 -89
c-2 -9 -11 -17 -21 -19 -21 -4 -35 27 -17 38 19 12 42 0 38 -19z m-704 -510
c10 -16 -5 -41 -25 -41 -19 0 -27 29 -12 43 9 10 31 9 37 -2z m607 -17 c64 -5
77 -9 75 -22 -2 -10 -14 -23 -27 -29 -29 -15 -155 -17 -164 -3 -4 6 -12 10
-18 9 -7 -1 -40 -1 -74 0 -60 1 -63 2 -63 25 0 13 6 27 13 30 12 5 102 2 258
-10z m349 -37 c0 -54 -89 -277 -110 -277 -4 0 -22 3 -39 6 l-31 7 0 123 c0
120 1 124 23 129 12 3 49 11 82 19 33 8 63 14 68 15 4 1 7 -9 7 -22z m-874
-49 c-3 -18 -10 -63 -17 -100 -9 -56 -14 -68 -30 -68 -24 0 -24 12 -2 118 14
68 20 82 36 82 16 0 18 -5 13 -32z m401 -2 c3 -3 0 -12 -7 -21 -9 -11 -32 -15
-81 -15 -38 0 -69 -2 -69 -5 0 -3 9 -23 20 -45 21 -42 77 -90 103 -90 21 0 22
-16 1 -24 -18 -7 -58 1 -96 21 -18 9 -28 10 -28 3 0 -17 89 -53 116 -47 29 5
32 -9 4 -18 -28 -9 -94 3 -117 20 -35 27 -38 14 -3 -15 24 -21 29 -30 17 -30
-9 0 -32 14 -52 31 -21 19 -35 26 -35 18 0 -8 -18 5 -40 28 -32 33 -50 43 -85
49 -25 3 -45 9 -45 12 0 3 5 34 11 69 l11 63 52 -6 c29 -3 62 -1 76 5 25 11
235 9 247 -3z m-459 -333 c5 -17 -26 -29 -40 -15 -6 6 -7 15 -3 22 9 14 37 9
43 -7z"/>
<path d="M1546 1975 c-3 -8 -1 -15 4 -15 6 0 10 7 10 15 0 8 -2 15 -4 15 -2 0
-6 -7 -10 -15z"/>
<path d="M1764 1952 c3 -5 -5 -20 -17 -32 -18 -20 -18 -23 -3 -17 10 4 47 7
82 7 40 0 64 4 64 11 0 6 -7 9 -15 5 -9 -3 -15 0 -15 9 0 9 6 12 18 8 10 -4
14 -2 9 3 -10 11 -58 13 -51 3 2 -4 0 -10 -5 -13 -5 -3 -12 2 -15 11 -6 15 -8
15 -17 3 -8 -11 -12 -12 -16 -2 -2 6 -9 12 -14 12 -6 0 -8 -4 -5 -8z"/>
<path d="M1738 1883 c7 -3 16 -2 19 1 4 3 -2 6 -13 5 -11 0 -14 -3 -6 -6z"/>
</g>
</svg>
